<?xml version="1.0" encoding="utf-8"?>
<!-- Generator: Adobe Illustrator 28.3.0, SVG Export Plug-In . SVG Version: 6.00 Build 0)  -->
<svg version="1.1" id="Layer_2_00000147195809156513460020000012993951672177460397_"
	 xmlns="http://www.w3.org/2000/svg" xmlns:xlink="http://www.w3.org/1999/xlink" x="0px" y="0px" viewBox="0 0 507.6 58"
	 style="enable-background:new 0 0 507.6 58;" xml:space="preserve">
<style type="text/css">
	.st0{enable-background:new    ;}
	.st1{fill:#2C604B;}
</style>
<g class="st0">
	<path class="st1" d="M35.2,1.3l0.6,10.8l-0.8,0c-0.3-1.8-0.8-3.4-1.4-4.6S32,5.3,30.8,4.4c-1-0.8-2.2-1.3-3.6-1.6
		c-1.4-0.3-3.3-0.5-5.6-0.5h-7.5V22h2c2,0,3.5-0.1,4.5-0.4c1-0.3,1.8-0.7,2.5-1.4c0.6-0.6,1.1-1.4,1.4-2.2c0.3-0.9,0.5-2.1,0.7-3.8
		l0.8,0l-0.1,17.6h-0.8c-0.2-1.7-0.5-3-0.9-4.1c-0.4-1-0.9-1.9-1.6-2.6c-0.7-0.7-1.5-1.2-2.6-1.5s-2.4-0.5-4-0.5h-1.9v7.5
		c0,3,0.1,5.2,0.2,6.5c0.2,1.4,0.4,2.5,0.9,3.4c0.7,1.6,1.9,2.7,3.4,3.5c1.5,0.7,3.5,1.1,6,1.1c2.6,0,4.8-0.3,6.6-1s3.2-1.7,4.3-3.1
		c0.8-0.9,1.4-2,1.9-3.2c0.5-1.2,0.9-2.8,1.4-4.8l0.8,0l-0.4,13H0v-0.8c1.2-0.1,2.3-0.2,3-0.5c0.8-0.3,1.5-0.7,2.1-1.4
		c0.7-0.7,1.1-1.6,1.4-2.7c0.3-1.1,0.4-2.7,0.4-5V11.6c0-2.2-0.1-3.9-0.4-5C6.3,5.6,5.8,4.7,5.1,4c-0.6-0.6-1.3-1.1-2-1.4
		C2.3,2.3,1.3,2.1,0,2.1V1.3H35.2z"/>
	<path class="st1" d="M50.4,17.7c0.3,1.3,0.5,2.5,0.5,3.6v0.5c2.7-2.7,5.9-4.1,9.7-4.1c2.8,0,5,0.7,6.7,2c1.7,1.3,2.5,3.1,2.5,5.5
		V39c0,1.5,0.1,2.6,0.3,3.3s0.5,1.3,1,1.7c0.6,0.6,1.7,1,3.4,1.3V46H60v-0.7c1.3-0.2,2.2-0.4,2.8-0.7s1-0.9,1.4-1.6
		c0.2-0.5,0.4-1.3,0.5-2.3c0.1-1,0.1-2.5,0.1-4.4v-6.9c0-2.4-0.1-4.1-0.2-5.2c-0.2-1.1-0.5-2-0.9-2.7c-0.5-0.8-1.2-1.4-2.2-1.8
		c-0.9-0.4-2-0.6-3.1-0.6c-1.2,0-2.4,0.2-3.4,0.7c-1.1,0.5-1.9,1.1-2.5,2c-0.7,0.9-1.1,1.9-1.3,3c-0.2,1.1-0.3,2.9-0.3,5.5v6.4
		l0,2.4c0,1.5,0.1,2.6,0.3,3.3s0.5,1.3,1,1.7c0.6,0.6,1.7,1,3.4,1.3V46H41.1v-0.7c1.3-0.2,2.2-0.4,2.8-0.7c0.6-0.3,1-0.9,1.4-1.6
		c0.2-0.5,0.4-1.3,0.5-2.3c0.1-1,0.1-2.5,0.1-4.4v-8.1c0-2.2-0.1-3.8-0.2-4.7c-0.1-0.9-0.3-1.6-0.7-2.2c-0.4-0.6-0.8-1-1.3-1.3
		c-0.5-0.3-1.3-0.4-2.3-0.5v-0.7L50.4,17.7z"/>
	<path class="st1" d="M84.2,48.8L83.6,49c-0.4-0.6-0.7-1-1.1-1.3c-0.4-0.2-0.8-0.4-1.4-0.4c-0.9,0-1.7,0.3-2.2,1
		C78.3,49.1,78,50,78,51.1c0,1.8,0.9,3.2,2.7,4.4c1.8,1.1,4,1.7,6.8,1.7c2.9,0,5.3-0.6,7.1-1.9s2.7-2.9,2.7-4.9
		c0-1.6-0.6-2.9-1.8-3.7c-1.2-0.9-2.9-1.3-5.1-1.3h-5.2c-2.1,0-3.9-0.5-5.2-1.5c-1.4-1.1-2-2.3-2-3.8c0-1.6,0.7-2.8,2.2-3.7
		c0.7-0.4,2.1-0.9,4.1-1.4c-1.9-0.9-3.4-2-4.4-3.4c-1-1.4-1.6-3-1.6-4.7c0-2.2,0.8-4.2,2.5-5.9c1-1,2.1-1.8,3.4-2.4
		c1.3-0.6,2.7-0.8,4-0.8c2.1,0,4.2,0.7,6.4,2.2c1-0.8,2-1.4,2.8-1.7c0.8-0.3,1.7-0.5,2.7-0.5c1.1,0,1.9,0.2,2.6,0.7
		c0.8,0.6,1.2,1.3,1.2,2.1c0,0.5-0.2,0.9-0.5,1.3c-0.3,0.3-0.7,0.5-1.2,0.5c-0.7,0-1.3-0.4-1.9-1.1l-0.8-1c-0.4-0.5-1-0.8-1.8-0.8
		c-0.8,0-1.7,0.4-2.5,1.2c1.8,2.2,2.7,4.4,2.7,6.7c0,2.9-1.3,5.1-3.8,6.8c-1.3,0.8-2.6,1.4-4.1,1.7c-0.4,0.1-1.8,0.2-4.2,0.3
		c-3.2,0.2-4.8,1.1-4.8,2.7c0,1.4,1.4,2.1,4.1,2.1h5.4c1.9,0,3.5,0.2,4.8,0.5c1.3,0.3,2.5,0.9,3.4,1.6c1.9,1.4,2.9,3.4,2.9,6
		c0,2.8-1.1,5.1-3.3,6.7C95.8,57.2,92.5,58,88,58c-4.8,0-8.1-1-10.1-2.9c-1.3-1.2-1.9-2.8-1.9-4.7c0-1.5,0.5-2.7,1.4-3.7
		s2.1-1.5,3.4-1.5c1,0,1.8,0.3,2.4,0.9c0.6,0.6,0.9,1.4,0.9,2.3V48.8z M82.8,27c0,2.4,0.5,4.3,1.5,5.8c1,1.5,2.3,2.2,3.8,2.2
		c1.6,0,2.8-0.7,3.7-2.2c0.9-1.5,1.3-3.5,1.3-6.1c0-2.7-0.6-4.9-1.7-6.5c-0.8-1.2-1.9-1.8-3.2-1.8c-1.6,0-2.8,0.8-3.8,2.4
		c-0.5,0.8-0.9,1.7-1.1,2.9C82.9,24.8,82.8,25.9,82.8,27z"/>
	<path class="st1" d="M104,1.2l9.4-1.2v36.5l0,2.5c0,1.5,0.1,2.6,0.3,3.3s0.5,1.3,1,1.7c0.6,0.6,1.7,1,3.4,1.3V46h-14.5v-0.7
		c1.3-0.2,2.2-0.4,2.8-0.7s1-0.9,1.4-1.6c0.2-0.5,0.4-1.3,0.5-2.3c0.1-1,0.1-2.5,0.1-4.4V10.6c0-2.2-0.1-3.8-0.2-4.7
		s-0.3-1.7-0.7-2.2c-0.4-0.6-0.8-1-1.3-1.3C105.7,2.1,105,2,104,1.9V1.2z"/>
	<path class="st1" d="M120.2,18.9l9.4-1.2v18.9l0,2.5c0,1.5,0.1,2.6,0.3,3.2s0.5,1.3,1,1.7c0.6,0.6,1.7,1,3.4,1.3V46h-14.5v-0.7
		c1.3-0.2,2.2-0.4,2.8-0.7c0.6-0.3,1-0.9,1.4-1.6c0.2-0.5,0.4-1.3,0.5-2.3c0.1-1,0.1-2.5,0.1-4.4v-8.1c0-2.2-0.1-3.8-0.2-4.7
		c-0.1-0.9-0.3-1.6-0.7-2.2c-0.4-0.6-0.8-1-1.3-1.3c-0.5-0.3-1.3-0.4-2.3-0.5V18.9z M127.1,5.9c-0.9,0-1.6-0.3-2.1-0.8
		c-0.6-0.5-0.8-1.2-0.8-2.1c0-0.8,0.3-1.5,0.9-2c0.6-0.6,1.3-0.8,2.1-0.8c0.8,0,1.5,0.3,2.1,0.8c0.6,0.6,0.9,1.2,0.9,2
		c0,0.8-0.3,1.5-0.8,2.1C128.6,5.7,127.9,5.9,127.1,5.9z"/>
	<path class="st1" d="M138.4,46v-9.3h0.5c0.6,2.3,1.4,4.1,2.3,5.4c1.7,2.5,3.6,3.7,5.9,3.7c1.4,0,2.6-0.4,3.6-1.2
		c1.1-0.9,1.6-2.2,1.6-3.9c0-1.4-0.4-2.6-1.2-3.6c-0.4-0.5-1-1-1.7-1.5c-0.7-0.5-1.8-1.1-3.3-1.9c-2.7-1.5-4.6-2.7-5.5-3.7
		c-1.3-1.4-2-3-2-4.8c0-2,0.7-3.7,2-5.1c1.5-1.6,3.5-2.4,6-2.4c1.1,0,2.2,0.2,3.1,0.6l1.1,0.5c0.3,0.1,0.7,0.2,0.9,0.2
		c0.4,0,0.8-0.3,1.2-1h0.7l0.4,7.4h-0.7c-0.2-1-0.5-1.9-0.8-2.5c-0.3-0.6-0.7-1.2-1.2-1.8c-0.7-0.8-1.5-1.5-2.4-1.9
		s-1.8-0.7-2.6-0.7c-1.2,0-2.3,0.4-3.1,1.3s-1.3,2-1.3,3.3c0,1.1,0.4,2,1.2,2.9c0.8,0.9,2,1.7,3.6,2.4l3.5,1.6
		c2.1,0.9,3.6,2.1,4.6,3.5c1,1.4,1.5,3,1.5,4.9c0,2.3-0.7,4.2-2.2,5.7c-1.7,1.7-3.9,2.6-6.6,2.6c-1.4,0-2.9-0.3-4.4-0.9
		c-1-0.4-1.5-0.6-1.7-0.6c-0.2-0.1-0.4-0.1-0.8-0.1c-0.8,0-1.3,0.3-1.7,1H138.4z"/>
	<path class="st1" d="M169.6,0v22.4c0.8-0.9,1.4-1.7,2-2.2s1.3-1,2.1-1.4c1.6-0.8,3.4-1.2,5.4-1.2c2.6,0,4.7,0.5,6.4,1.5
		c1.2,0.8,2,1.7,2.5,2.8c0.4,1.1,0.7,2.8,0.7,5v9.6l0,2.5c0,1.5,0.1,2.6,0.3,3.3c0.2,0.7,0.5,1.3,1,1.7c0.6,0.6,1.7,1,3.4,1.3V46
		H179v-0.7c1.2-0.2,2-0.3,2.5-0.6c0.5-0.2,0.9-0.6,1.3-1.1c0.4-0.5,0.7-1.3,0.8-2.2c0.2-0.9,0.2-2.3,0.2-4.2V26.9
		c0-1.6-0.1-2.8-0.4-3.7c-0.2-0.9-0.6-1.7-1.2-2.4c-1.1-1.3-2.7-1.9-4.7-1.9c-5.3,0-7.9,4.2-7.9,12.5v5.2l0,2.4
		c0,1.5,0.1,2.6,0.3,3.3s0.5,1.3,1,1.7c0.6,0.6,1.7,1,3.4,1.3V46h-14.5v-0.7c1.3-0.2,2.2-0.4,2.8-0.7s1-0.9,1.4-1.6
		c0.2-0.5,0.4-1.3,0.5-2.3c0.1-1,0.1-2.5,0.1-4.4V10.6c0-2.2-0.1-3.8-0.2-4.7s-0.3-1.7-0.7-2.2c-0.4-0.6-0.8-1-1.3-1.3
		c-0.5-0.3-1.3-0.4-2.3-0.5V1.2L169.6,0z"/>
	<path class="st1" d="M230.2,2.3c-1.4,0-2.8,0-4.4,0.1c-3.4,0.2-5.9,0.6-7.5,1.3c-1.6,0.7-3,1.8-4.1,3.5c-1,1.5-1.7,3.6-2.3,6.2
		l-0.8-0.1l0.6-12.1H256l0.6,12.1l-0.8,0.1c-0.6-3-1.5-5.3-2.8-6.9c-1.3-1.6-3.1-2.7-5.5-3.4c-2-0.6-5.5-0.9-10.3-0.9v33.4
		c0,2.2,0.1,3.9,0.4,5c0.3,1.1,0.7,2,1.4,2.7c0.6,0.6,1.3,1.1,2.1,1.4c0.8,0.3,1.8,0.5,3,0.5V46h-20.9v-0.8c1.3-0.1,2.3-0.2,3.1-0.5
		c0.8-0.3,1.5-0.7,2.1-1.4c0.7-0.7,1.1-1.6,1.4-2.7s0.4-2.7,0.4-5V2.3z"/>
	<path class="st1" d="M264.8,28.2c-0.1,1.1-0.1,1.8-0.1,2.3c0,1.9,0.3,3.8,0.8,5.6c0.6,1.8,1.3,3.3,2.3,4.5c1,1.2,2.2,2.2,3.6,2.9
		s3,1,4.6,1c1.2,0,2.3-0.2,3.3-0.6c1.1-0.4,1.9-0.9,2.6-1.6c0.8-0.8,1.5-2,2-3.7l0.7,0.2c-0.6,2.6-1.8,4.5-3.7,5.8
		c-1.9,1.3-4.4,1.9-7.5,1.9c-2.7,0-5-0.4-6.9-1.3s-3.5-2.2-4.9-3.9c-1.9-2.5-2.8-5.5-2.8-9.1c0-4.9,1.8-8.8,5.3-11.6
		c2.6-2,5.5-3,8.7-3c1.7,0,3.4,0.3,4.8,0.9c1.5,0.6,2.7,1.5,3.8,2.7c1.6,1.8,2.4,4.1,2.4,6.9H264.8z M279,26.9
		c-0.2-2.2-0.6-3.9-1.2-5c-0.6-1.1-1.4-1.9-2.3-2.5c-1-0.6-2-0.9-3.1-0.9c-1.9,0-3.5,0.8-4.9,2.4s-2.2,3.6-2.5,6.1H279z"/>
	<path class="st1" d="M316.1,42.8l0.6,0.3c-0.8,2.3-2.6,3.4-5.4,3.4c-1.6,0-2.8-0.4-3.9-1.1c-0.7-0.5-1.4-1.4-2.1-2.6
		c-1.5,1.3-2.6,2.2-3.3,2.6c-1.4,0.8-3.1,1.2-5,1.2c-2.4,0-4.3-0.6-5.7-1.7c-1.4-1.2-2.1-2.7-2.1-4.7c0-1.8,0.6-3.3,1.7-4.6
		c0.7-0.7,1.4-1.2,2.3-1.6s2.1-0.8,3.7-1.2c1.9-0.5,3.3-0.9,4.2-1.2c0.9-0.3,1.7-0.7,2.3-1.2c0.7-0.5,1.2-1.1,1.4-1.8
		c0.3-0.7,0.4-1.6,0.4-2.8c0-2.6-0.5-4.4-1.4-5.6c-0.4-0.5-1-1-1.7-1.3c-0.7-0.3-1.4-0.5-2.1-0.5c-0.9,0-1.7,0.2-2.4,0.7
		s-1.2,1.1-1.6,1.9l-0.8,1.9c-0.4,1-1.2,1.5-2.4,1.5c-0.7,0-1.4-0.2-1.9-0.7c-0.5-0.5-0.8-1.1-0.8-1.9c0-1.1,0.8-2.1,2.4-2.8
		c0.9-0.4,1.9-0.7,3.2-1c1.3-0.2,2.5-0.4,3.7-0.4c1.4,0,2.8,0.2,4.2,0.5c1.5,0.3,2.7,0.8,3.7,1.3c1.4,0.8,2.3,1.9,2.7,3.1
		c0.2,0.7,0.3,1.8,0.3,3.3v12.1c0,2.1,0.1,3.5,0.3,4.2c0.4,1.6,1.3,2.3,2.7,2.3c0.7,0,1.2-0.1,1.6-0.4S315.6,43.6,316.1,42.8z
		 M305.2,29.9c-1.2,1-2.5,1.8-3.9,2.6c-1.6,0.9-2.7,1.5-3.3,1.9c-0.6,0.4-1.2,1-1.7,1.6c-1,1.3-1.5,2.7-1.5,4.4
		c0,1.4,0.4,2.6,1.2,3.6c0.8,0.9,1.8,1.4,3,1.4c1.1,0,2.1-0.3,3-1s1.7-1.6,2.1-2.7c0.7-1.5,1-3.6,1-6.4V29.9z"/>
	<path class="st1" d="M348.2,22.1h23.3V11.6c0-2.2-0.1-3.9-0.4-5c-0.3-1.1-0.7-2-1.4-2.7c-0.6-0.6-1.3-1.1-2.1-1.4
		c-0.8-0.3-1.8-0.5-3.1-0.5V1.3h20.9v0.8c-1.2,0.1-2.3,0.2-3,0.5c-0.8,0.3-1.5,0.7-2.1,1.4c-0.7,0.7-1.1,1.6-1.4,2.7
		c-0.3,1.1-0.4,2.7-0.4,5v24.1c0,2.2,0.1,3.9,0.4,4.9c0.3,1.1,0.7,2,1.4,2.7c0.6,0.6,1.3,1.1,2.1,1.4c0.8,0.3,1.8,0.5,3,0.5V46
		h-20.9v-0.8c1.3-0.1,2.3-0.2,3.1-0.5c0.8-0.3,1.5-0.7,2.1-1.4c0.7-0.7,1.1-1.6,1.4-2.7s0.4-2.7,0.4-5V23.7h-23.3v12.1
		c0,2.2,0.1,3.9,0.4,5c0.3,1.1,0.7,2,1.4,2.7c0.6,0.6,1.3,1.1,2,1.4s1.8,0.5,3.1,0.5V46h-20.9v-0.8c1.3-0.1,2.3-0.2,3.1-0.5
		c0.8-0.3,1.5-0.7,2-1.4c0.7-0.7,1.2-1.6,1.4-2.7s0.4-2.7,0.4-5V11.6c0-2.2-0.1-3.9-0.4-5c-0.2-1.1-0.7-2-1.4-2.7
		c-0.6-0.6-1.3-1.1-2.1-1.4c-0.8-0.3-1.8-0.5-3-0.5V1.3h20.9v0.8c-1.2,0.1-2.3,0.2-3,0.5c-0.8,0.3-1.5,0.7-2.1,1.4
		c-0.7,0.7-1.1,1.6-1.4,2.7s-0.4,2.7-0.4,5V22.1z"/>
	<path class="st1" d="M389.1,32.2c0-3.5,1.3-6.7,3.9-9.5c3.2-3.4,7-5,11.4-5c4.4,0,8.2,1.7,11.4,5c2.6,2.8,3.9,6,3.9,9.5
		c0,3.5-1.2,6.6-3.7,9.3c-3.1,3.4-6.9,5-11.6,5c-4.7,0-8.6-1.7-11.6-5c-1.2-1.3-2.1-2.8-2.8-4.4C389.5,35.6,389.1,33.9,389.1,32.2z
		 M395.1,31.8c0,3.8,0.9,7,2.6,9.7c1.9,2.9,4.3,4.4,7,4.4c1.2,0,2.3-0.3,3.4-1c1.1-0.7,2.1-1.6,2.9-2.8c0.9-1.2,1.5-2.8,2.1-4.6
		c0.5-1.8,0.8-3.6,0.8-5.3c0-1.8-0.3-3.6-0.8-5.4c-0.6-1.8-1.3-3.4-2.2-4.7c-1.8-2.5-4-3.7-6.6-3.7c-2.5,0-4.6,1.3-6.4,3.9
		C396,24.9,395.1,28.1,395.1,31.8z"/>
	<path class="st1" d="M446.3,46.6c-0.3-1.3-0.4-2.7-0.4-4.1c-2.7,2.7-6,4.1-9.7,4.1c-2.7,0-4.9-0.7-6.6-2c-1.6-1.3-2.4-3.2-2.4-5.6
		V27.7l0-2.5c0-1.5-0.1-2.6-0.3-3.2s-0.5-1.3-1-1.7c-0.6-0.6-1.8-1-3.4-1.3v-0.7h9.6v16.6c0,2.3,0.1,4.1,0.2,5.2
		c0.2,1.1,0.5,2,0.9,2.8c0.5,0.7,1.2,1.3,2.1,1.8s1.9,0.6,3,0.6c1.2,0,2.4-0.2,3.4-0.7c1.1-0.5,1.9-1.1,2.5-2
		c0.6-0.9,1.1-1.8,1.3-2.9c0.2-1.1,0.3-2.9,0.3-5.5v-6.4l0-2.4c0-1.5-0.1-2.6-0.2-3.2c-0.2-0.7-0.5-1.3-1-1.7
		c-0.6-0.6-1.7-1-3.4-1.3v-0.7h9.6v17.8c0,2.2,0.1,3.8,0.2,4.7c0.1,0.9,0.4,1.6,0.7,2.2c0.4,0.6,0.9,1.1,1.4,1.3
		c0.5,0.3,1.3,0.4,2.3,0.5v0.7L446.3,46.6z"/>
	<path class="st1" d="M459.3,46v-9.3h0.5c0.6,2.3,1.4,4.1,2.3,5.4c1.7,2.5,3.6,3.7,5.9,3.7c1.4,0,2.6-0.4,3.6-1.2
		c1.1-0.9,1.6-2.2,1.6-3.9c0-1.4-0.4-2.6-1.2-3.6c-0.4-0.5-1-1-1.7-1.5c-0.7-0.5-1.8-1.1-3.3-1.9c-2.7-1.5-4.6-2.7-5.5-3.7
		c-1.3-1.4-2-3-2-4.8c0-2,0.7-3.7,2-5.1c1.5-1.6,3.5-2.4,6-2.4c1.1,0,2.2,0.2,3.1,0.6l1.1,0.5c0.3,0.1,0.7,0.2,0.9,0.2
		c0.4,0,0.8-0.3,1.2-1h0.7l0.4,7.4h-0.7c-0.2-1-0.5-1.9-0.8-2.5c-0.3-0.6-0.7-1.2-1.2-1.8c-0.7-0.8-1.5-1.5-2.4-1.9
		s-1.8-0.7-2.6-0.7c-1.2,0-2.3,0.4-3.1,1.3c-0.9,0.9-1.3,2-1.3,3.3c0,1.1,0.4,2,1.2,2.9c0.8,0.9,2,1.7,3.6,2.4l3.5,1.6
		c2.1,0.9,3.6,2.1,4.6,3.5c1,1.4,1.5,3,1.5,4.9c0,2.3-0.7,4.2-2.2,5.7c-1.7,1.7-3.9,2.6-6.6,2.6c-1.4,0-2.9-0.3-4.4-0.9
		c-1-0.4-1.5-0.6-1.7-0.6s-0.4-0.1-0.8-0.1c-0.8,0-1.3,0.3-1.7,1H459.3z"/>
	<path class="st1" d="M487.7,28.2c-0.1,1.1-0.1,1.8-0.1,2.3c0,1.9,0.3,3.8,0.8,5.6c0.6,1.8,1.3,3.3,2.3,4.5c1,1.2,2.2,2.2,3.6,2.9
		s3,1,4.6,1c1.2,0,2.3-0.2,3.3-0.6c1.1-0.4,1.9-0.9,2.6-1.6c0.8-0.8,1.5-2,2-3.7l0.7,0.2c-0.6,2.6-1.8,4.5-3.7,5.8
		c-1.9,1.3-4.4,1.9-7.5,1.9c-2.7,0-5-0.4-6.9-1.3s-3.5-2.2-4.9-3.9c-1.9-2.5-2.8-5.5-2.8-9.1c0-4.9,1.8-8.8,5.3-11.6
		c2.6-2,5.5-3,8.7-3c1.7,0,3.4,0.3,4.8,0.9c1.5,0.6,2.7,1.5,3.8,2.7c1.6,1.8,2.4,4.1,2.4,6.9H487.7z M502,26.9
		c-0.2-2.2-0.6-3.9-1.2-5c-0.6-1.1-1.4-1.9-2.3-2.5c-1-0.6-2-0.9-3.1-0.9c-1.9,0-3.5,0.8-4.9,2.4s-2.2,3.6-2.5,6.1H502z"/>
</g>
</svg>
